<?xml version="1.0" encoding="UTF-8" standalone="no"?>
<!-- Generator: Adobe Illustrator 26.0.2, SVG Export Plug-In . SVG Version: 6.00 Build 0)  -->

<svg
   version="1.1"
   id="Layer_1"
   x="0px"
   y="0px"
   viewBox="0 0 860 400"
   xml:space="preserve"
   sodipodi:docname="OnePub.dev Logo – 2 col on white FA.svg"
   width="860"
   height="400"
   inkscape:version="1.1.2 (0a00cf5339, 2022-02-04)"
   xmlns:inkscape="http://www.inkscape.org/namespaces/inkscape"
   xmlns:sodipodi="http://sodipodi.sourceforge.net/DTD/sodipodi-0.dtd"
   xmlns="http://www.w3.org/2000/svg"
   xmlns:svg="http://www.w3.org/2000/svg"><defs
   id="defs188" /><sodipodi:namedview
   id="namedview186"
   pagecolor="#ffffff"
   bordercolor="#666666"
   borderopacity="1.0"
   inkscape:pageshadow="2"
   inkscape:pageopacity="0.0"
   inkscape:pagecheckerboard="0"
   showgrid="false"
   inkscape:zoom="0.76916667"
   inkscape:cx="600"
   inkscape:cy="359.47996"
   inkscape:window-width="1920"
   inkscape:window-height="2083"
   inkscape:window-x="2560"
   inkscape:window-y="40"
   inkscape:window-maximized="0"
   inkscape:current-layer="Layer_1" />
<style
   type="text/css"
   id="style155">
	.st0{fill:none;}
	.st1{fill:#464054;}
	.st2{fill:#F3716D;}
</style>
<rect
   class="st0"
   width="1200"
   height="720"
   id="rect157"
   x="0"
   y="0" />
<g
   id="g183"
   transform="translate(-170.37228,-151.01015)">
	<g
   id="g173">
		<g
   id="g171">
			<path
   class="st1"
   d="m 176.5,421.8 v -0.4 c 0,-44.2 35.7,-80.1 83.2,-80.1 47.5,0 82.8,35.4 82.8,79.7 v 0.4 c 0,44.2 -35.7,80.1 -83.2,80.1 -47.5,0 -82.8,-35.4 -82.8,-79.7 z m 122.1,0 v -0.4 c 0,-22.4 -15.8,-41.6 -39.4,-41.6 -23.6,0 -39.2,18.9 -39.2,41.2 v 0.4 c 0,22.2 16.1,41.6 39.6,41.6 23.4,0 39,-18.9 39,-41.2 z"
   id="path159" />
			<path
   class="st1"
   d="m 354.3,379.3 h 41.8 V 396 c 7.7,-9.9 18.7,-19.4 35.7,-19.4 25.3,0 40.5,16.7 40.5,43.8 v 77.9 h -41.6 v -64.5 c 0,-13.2 -6.8,-20.2 -16.9,-20.2 -10.1,0 -17.6,7 -17.6,20.2 v 64.5 h -41.8 v -119 z"
   id="path161" />
			<path
   class="st1"
   d="m 584.6,393.7 c -9.8,-10.5 -24.1,-17 -43.1,-17 -35.2,0 -60.1,27.5 -60.1,62.3 v 0.4 c 0,33.3 21.7,57 53.6,61.2 l 14.2,-30.7 c -0.7,0 -1.3,0 -2,0 -13,0 -22.4,-6.6 -25.8,-19.6 h 36.8 z m -63.7,35.4 c 2.2,-13.2 9.7,-21.6 20.7,-21.6 11.5,0 19.3,8.4 20.9,21.6 z"
   id="path163" />
			<path
   class="st1"
   d="m 684.8,344.3 h -55.6 l 13,154.1 h 19 v -44 h 21.4 c 38.1,0 66,-19.2 66,-55.7 v -0.4 c 0,-33.9 -25,-54 -63.8,-54 z m 21.4,56.4 c 0,12.1 -9.5,20.3 -24.4,20.3 h -20.5 v -40.7 h 20.3 c 15.2,0 24.7,6.8 24.7,20 v 0.4 z"
   id="path165" />
			<path
   class="st1"
   d="m 757.9,457 v -77.7 h 41.8 v 64.5 c 0,13 6.8,20 16.9,20 10.1,0 17.6,-7 17.6,-20 v -64.5 h 41.6 v 119.1 h -41.6 v -16.5 c -7.7,9.9 -18.7,19.1 -35.7,19.1 -25.2,0.1 -40.6,-16.9 -40.6,-44 z"
   id="path167" />
			<path
   class="st1"
   d="m 934.6,483.9 v 14.5 H 892.8 V 337.8 h 41.8 v 57.4 c 8.1,-9.9 18.3,-18.5 36.1,-18.5 28.4,0 52.8,23.5 52.8,61.6 v 0.4 c 0,38.7 -24.4,62.3 -52.6,62.3 -18,0.1 -28.6,-8.1 -36.3,-17.1 z m 48,-44.9 v -0.4 c 0,-15.8 -11,-27.1 -24.4,-27.1 -13.6,0 -24.4,11.2 -24.4,27.1 v 0.4 c 0,15.8 10.8,27.1 24.4,27.1 13.4,0 24.4,-11 24.4,-27.1 z"
   id="path169" />
		</g>
	</g>
	<g
   id="g181">
		<path
   class="st2"
   d="m 646.7,186.1 c -19.3,-3.4 -38.4,-5.1 -56.9,-5.1 -22.7,0 -43,2.7 -58.4,7.7 -23.4,7.6 -30,18.9 -31.4,27.1 -4.8,27.1 39.3,54.2 91.5,69.6 7.2,13.5 18.7,24 33.1,26.5 14.3,2.5 28.7,-3.4 40,-13.5 6.7,0.4 13.2,0.6 19.7,0.6 22.8,0 43.1,-2.7 58.7,-7.7 23.4,-7.6 30.1,-19 31.5,-27.1 5.8,-33.3 -61.8,-66.5 -127.8,-78.1 z m 117,76.1 c -2.7,15.3 -35.2,25.8 -79.4,25.8 -3.3,0 -6.7,0 -10.1,-0.2 -14,-0.4 -29.1,-2 -44.6,-4.7 -15.5,-2.7 -30.1,-6.4 -43.5,-10.8 -47,-15.3 -78.3,-38.3 -75.4,-54.7 2.7,-15.2 35,-25.7 79.1,-25.7 16.9,0 35.6,1.5 55,5 69.9,12.2 122.6,44.2 118.9,65.3 z"
   id="path175" />
		<path
   class="st2"
   d="m 682.2,269.5 c -15.6,0 -32.7,-1.6 -49.4,-4.5 -26.3,-4.6 -51.3,-12.5 -70.2,-22.2 -22.7,-11.6 -33.1,-23.9 -30.9,-36.5 3.8,-21.8 42.7,-25 65.5,-25 15.6,0 32.8,1.6 49.6,4.5 24.1,4.3 49.6,12.2 68,21.2 23.9,11.7 35.3,24.6 33.1,37.4 -3.9,21.8 -42.8,25.1 -65.7,25.1 z m -85,-76.8 c -30.8,0 -52.6,6.3 -54.2,15.6 -1.2,6.6 8.1,15.7 24.8,24.3 17.9,9.2 41.7,16.7 67,21.2 16,2.8 32.4,4.3 47.4,4.3 30.9,0 52.8,-6.3 54.5,-15.6 2.4,-13.3 -36.4,-35.6 -91.8,-45.4 -16.2,-2.9 -32.7,-4.4 -47.7,-4.4 z"
   id="path177" />
		<path
   class="st2"
   d="m 661.7,236.4 c -7.3,0 -15.3,-0.7 -23.5,-2.2 -13.5,-2.4 -26,-6.5 -35.1,-11.5 -13.9,-7.6 -15.7,-15.1 -14.9,-19.9 2.5,-14.4 10.5,-26.9 22.5,-35.3 12,-8.4 26.5,-11.6 40.9,-9.1 14.4,2.6 26.9,10.6 35.3,22.6 8.4,12 11.6,26.5 9.1,40.9 v 0 c -0.9,4.9 -5.2,11.2 -20.8,13.6 -4.1,0.6 -8.7,0.9 -13.5,0.9 z M 642,168.5 c -8.9,0 -17.6,2.7 -25,7.9 -9.6,6.7 -16,16.8 -18,28.3 -0.1,0.6 1.2,4 9.4,8.5 8.1,4.5 19.4,8.1 31.8,10.3 12.4,2.2 24.2,2.6 33.4,1.2 9.2,-1.4 11.6,-4.2 11.7,-4.8 v 0 c 2,-11.5 -0.5,-23.2 -7.3,-32.7 -6.7,-9.6 -16.8,-16 -28.3,-18 -2.6,-0.5 -5.1,-0.7 -7.7,-0.7 z"
   id="path179" />
	</g>
</g>
</svg>
